<mxfile host="app.diagrams.net" modified="2024-01-16T22:02:45.849Z" agent="Mozilla/5.0 (Windows NT 10.0; Win64; x64; rv:121.0) Gecko/20100101 Firefox/121.0" etag="G4r4BYfma2cqas_wYxSr" version="22.1.20" type="github">
  <diagram name="Page-1" id="oDPZEiXpk-Xnv8on-RpE">
    <mxGraphModel dx="696" dy="439" grid="1" gridSize="10" guides="1" tooltips="1" connect="1" arrows="1" fold="1" page="1" pageScale="1" pageWidth="827" pageHeight="1169" math="0" shadow="0">
      <root>
        <mxCell id="0" />
        <mxCell id="1" parent="0" />
      </root>
    </mxGraphModel>
  </diagram>
</mxfile>
